<svg id="Layer_1" data-name="Layer 1" xmlns="http://www.w3.org/2000/svg" viewBox="0 0 539.25 174.45"><defs><style>.cls-1{fill:#3fbeaf;}.cls-2{opacity:0.1;}.cls-3{fill:#010101;}.cls-4{fill:#e51e25;}.cls-5{fill:#ef7922;}</style></defs><path class="cls-1" d="M179.71,0l-94,102.66a6.8,6.8,0,0,1-9.6.43L32,62.64,0,97.56l66.66,61a23.66,23.66,0,0,0,17,6.19h0a23.68,23.68,0,0,0,16.41-7.67L214.63,32Z"/><g class="cls-2"><path class="cls-3" d="M203.08,21.39,82.18,153.49A25.85,25.85,0,0,1,69.83,161a23.7,23.7,0,0,0,13.86,3.76h0a23.68,23.68,0,0,0,16.41-7.67L214.63,32Z"/></g><path class="cls-4" d="M143.56,81H110.49V51.62H213.84V81H180.77v81.88H143.56Z"/><path class="cls-4" d="M204.3,114.74a49.69,49.69,0,1,1,49.77,49.76A49.71,49.71,0,0,1,204.3,114.74Zm67.26-.16a17.57,17.57,0,1,0-17.49,17.65A17.44,17.44,0,0,0,271.56,114.58Z"/><path class="cls-5" d="M427.06,106.47c0,36.57-31.32,56.44-54.7,56.44h-66.3V51.62h67.58C401,51.62,427.06,72.45,427.06,106.47Zm-37.52-.16c0-18-11.29-25.28-28.46-25.28H343.27V133.5h19.08C377.93,133.5,389.54,123,389.54,106.31Z"/><path class="cls-5" d="M426.27,114.74A49.69,49.69,0,1,1,476,164.5,49.7,49.7,0,0,1,426.27,114.74Zm67.25-.16A17.57,17.57,0,1,0,476,132.23,17.44,17.44,0,0,0,493.52,114.58Z"/><circle class="cls-4" cx="529.58" cy="164.78" r="9.67"/></svg>