<svg id="Layer_1" data-name="Layer 1" xmlns="http://www.w3.org/2000/svg" viewBox="0 0 600 180"><defs><style>.cls-1{fill:#3fbeaf;}.cls-2{opacity:0.1;}.cls-3{fill:#010101;}.cls-4{font-size:159px;font-family:Alfarn;letter-spacing:-0.11em;}.cls-4,.cls-7{fill:#e51e25;}.cls-5,.cls-6{letter-spacing:-0.06em;}.cls-6{fill:#ef7922;}</style></defs><path class="cls-1" d="M179.71,0l-94,102.66a6.8,6.8,0,0,1-9.6.43L32,62.64,0,97.56l66.66,61a23.66,23.66,0,0,0,17,6.19h0a23.68,23.68,0,0,0,16.41-7.67L214.63,32Z"/><g class="cls-2"><path class="cls-3" d="M203.08,21.39,82.18,153.49A25.85,25.85,0,0,1,69.83,161a23.7,23.7,0,0,0,13.86,3.76h0a23.68,23.68,0,0,0,16.41-7.67L214.63,32Z"/></g><text class="cls-4" transform="translate(107.31 162.91)">T<tspan class="cls-5" x="92.22" y="0">o</tspan><tspan class="cls-6" x="191.59" y="0">Do</tspan></text><circle class="cls-7" cx="529.58" cy="164.78" r="9.67"/></svg>